<svg width="40" height="50" viewBox="0 0 40 50" fill="none" xmlns="http://www.w3.org/2000/svg">
<path d="M34.0882 11.1782C30.0831 3.96995 25.0799 0 20 0C14.9201 0 9.91711 3.96995 5.91183 11.1782C2.60208 17.1356 0.463379 24.5574 0.463379 30.0864C0.463379 35.4228 2.46368 40.4194 6.09611 44.1553C9.76036 47.9244 14.6981 49.9998 20.0002 49.9998C25.3022 49.9998 30.24 47.9242 33.9043 44.1553C37.5365 40.4192 39.5368 35.4228 39.5368 30.0864C39.5366 24.5574 37.3979 17.1354 34.0882 11.1782ZM20 47.6575C10.3583 47.6575 2.80588 39.9394 2.80588 30.0864C2.80588 19.6342 10.842 2.3425 20 2.3425C29.158 2.3425 37.1941 19.6342 37.1941 30.0864C37.1941 39.9394 29.6417 47.6575 20 47.6575Z" fill="black"/>
</svg>
